<?xml version="1.0" encoding="UTF-8"?>
<svg id="Camada_1" data-name="Camada 1" xmlns="http://www.w3.org/2000/svg" viewBox="0 0 548.7 514.2">
  <defs>
    <style>
      .cls-1 {
        stroke-width: 3px;
      }

      .cls-1, .cls-2, .cls-3, .cls-4, .cls-5, .cls-6, .cls-7 {
        stroke-miterlimit: 10;
      }

      .cls-1, .cls-2, .cls-4, .cls-5 {
        stroke: #2e4b65;
      }

      .cls-1, .cls-3, .cls-4, .cls-5 {
        fill: none;
      }

      .cls-8 {
        fill: #ff347d;
      }

      .cls-2, .cls-9 {
        fill: #2e4b65;
      }

      .cls-3 {
        stroke: #ff347d;
      }

      .cls-4, .cls-6, .cls-7 {
        stroke-width: 4px;
      }

      .cls-5 {
        stroke-width: 16px;
      }

      .cls-6 {
        fill: #31b0b0;
        stroke: #31b0b0;
      }

      .cls-7 {
        fill: #78b07f;
        stroke: #78b07f;
      }
    </style>
  </defs>
  <g>
    <polygon class="cls-8" points="267 1.6 342.9 232.9 194.7 232.9 267 1.6"/>
    <polygon class="cls-3" points="342.9 232.9 194.7 232.9 267 1.6 342.9 232.9"/>
  </g>
  <polygon class="cls-6" points="166.4 288.4 241.6 416.1 5.6 471.2 166.4 288.4"/>
  <polygon class="cls-7" points="304.3 413.3 377.1 284.3 543 460.9 304.3 413.3"/>
  <circle class="cls-1" cx="268.8" cy="313.1" r="190.6"/>
  <polygon class="cls-4" points="271.2 510.2 98.5 211.1 443.9 211.1 271.2 510.2"/>
  <circle class="cls-1" cx="268.8" cy="313.1" r="135.9"/>
  <path class="cls-2" d="M176.9,229.2c-16.8,0-30.5,13.7-30.5,30.5s13.7,30.5,30.5,30.5,30.5-13.7,30.5-30.5-13.7-30.5-30.5-30.5Z"/>
  <path class="cls-2" d="M176.9,206.4c-29.4,0-53.3,23.9-53.3,53.3s23.9,53.3,53.3,53.3,53.3-23.9,53.3-53.3-23.9-53.3-53.3-53.3ZM176.9,297c-20.6,0-37.3-16.7-37.3-37.3s16.7-37.3,37.3-37.3,37.3,16.7,37.3,37.3-16.7,37.3-37.3,37.3Z"/>
  <path class="cls-2" d="M362.4,206.4c-29.4,0-53.3,23.9-53.3,53.3s23.9,53.3,53.3,53.3,53.3-23.9,53.3-53.3-23.9-53.3-53.3-53.3ZM362.4,297c-20.6,0-37.3-16.7-37.3-37.3s16.7-37.3,37.3-37.3,37.3,16.7,37.3,37.3-16.7,37.3-37.3,37.3Z"/>
  <path class="cls-2" d="M362.4,229.2c-16.9,0-30.6,13.7-30.6,30.6s13.7,30.6,30.6,30.6,30.6-13.7,30.6-30.6-13.7-30.6-30.6-30.6Z"/>
  <path class="cls-9" d="M271.2,383.7c-16.9,0-30.6,13.7-30.6,30.6s13.7,30.6,30.6,30.6,30.6-13.7,30.6-30.6-13.7-30.6-30.6-30.6Z"/>
  <path class="cls-9" d="M271.2,361c-29.4,0-53.3,23.9-53.3,53.3s23.9,53.3,53.3,53.3,53.3-23.9,53.3-53.3-23.9-53.3-53.3-53.3ZM271.2,451.6c-20.6,0-37.3-16.7-37.3-37.3s16.7-37.3,37.3-37.3,37.3,16.7,37.3,37.3-16.7,37.3-37.3,37.3Z"/>
  <circle class="cls-5" cx="268.8" cy="310.2" r="55.8"/>
</svg>